<mxfile host="app.diagrams.net" agent="Mozilla/5.0 (Windows NT 10.0; Win64; x64) AppleWebKit/537.36 (KHTML, like Gecko) Chrome/138.0.0.0 Safari/537.36 Edg/138.0.0.0" version="28.0.6">
  <diagram name="Trang-1" id="dPbLic7fX8plnX_Qv4qI">
    <mxGraphModel dx="1034" dy="548" grid="1" gridSize="10" guides="1" tooltips="1" connect="1" arrows="1" fold="1" page="1" pageScale="1" pageWidth="827" pageHeight="1169" math="0" shadow="0">
      <root>
        <mxCell id="0" />
        <mxCell id="1" parent="0" />
        <mxCell id="m5A_iEzt90K2f7XGkb7F-3" value="" style="edgeStyle=orthogonalEdgeStyle;rounded=0;orthogonalLoop=1;jettySize=auto;html=1;" edge="1" parent="1" source="m5A_iEzt90K2f7XGkb7F-1" target="m5A_iEzt90K2f7XGkb7F-2">
          <mxGeometry relative="1" as="geometry" />
        </mxCell>
        <mxCell id="m5A_iEzt90K2f7XGkb7F-1" value="Begin" style="ellipse;whiteSpace=wrap;html=1;" vertex="1" parent="1">
          <mxGeometry x="354" y="40" width="120" height="80" as="geometry" />
        </mxCell>
        <mxCell id="m5A_iEzt90K2f7XGkb7F-5" style="edgeStyle=orthogonalEdgeStyle;rounded=0;orthogonalLoop=1;jettySize=auto;html=1;" edge="1" parent="1" source="m5A_iEzt90K2f7XGkb7F-2" target="m5A_iEzt90K2f7XGkb7F-4">
          <mxGeometry relative="1" as="geometry" />
        </mxCell>
        <mxCell id="m5A_iEzt90K2f7XGkb7F-2" value="Broadcast with specific channel" style="whiteSpace=wrap;html=1;" vertex="1" parent="1">
          <mxGeometry x="354" y="150" width="120" height="60" as="geometry" />
        </mxCell>
        <mxCell id="m5A_iEzt90K2f7XGkb7F-9" value="" style="edgeStyle=orthogonalEdgeStyle;rounded=0;orthogonalLoop=1;jettySize=auto;html=1;" edge="1" parent="1" source="m5A_iEzt90K2f7XGkb7F-4" target="m5A_iEzt90K2f7XGkb7F-8">
          <mxGeometry relative="1" as="geometry" />
        </mxCell>
        <mxCell id="m5A_iEzt90K2f7XGkb7F-4" value="MAC addrs receive" style="shape=parallelogram;perimeter=parallelogramPerimeter;whiteSpace=wrap;html=1;fixedSize=1;" vertex="1" parent="1">
          <mxGeometry x="336" y="250" width="156" height="60" as="geometry" />
        </mxCell>
        <mxCell id="m5A_iEzt90K2f7XGkb7F-11" value="" style="edgeStyle=orthogonalEdgeStyle;rounded=0;orthogonalLoop=1;jettySize=auto;html=1;" edge="1" parent="1" source="m5A_iEzt90K2f7XGkb7F-8" target="m5A_iEzt90K2f7XGkb7F-10">
          <mxGeometry relative="1" as="geometry" />
        </mxCell>
        <mxCell id="m5A_iEzt90K2f7XGkb7F-12" value="YES&lt;div&gt;&lt;br&gt;&lt;/div&gt;" style="edgeLabel;html=1;align=center;verticalAlign=middle;resizable=0;points=[];" vertex="1" connectable="0" parent="m5A_iEzt90K2f7XGkb7F-11">
          <mxGeometry x="-0.2089" y="-2" relative="1" as="geometry">
            <mxPoint as="offset" />
          </mxGeometry>
        </mxCell>
        <mxCell id="m5A_iEzt90K2f7XGkb7F-14" style="edgeStyle=orthogonalEdgeStyle;rounded=0;orthogonalLoop=1;jettySize=auto;html=1;entryX=0;entryY=0.5;entryDx=0;entryDy=0;" edge="1" parent="1" source="m5A_iEzt90K2f7XGkb7F-8" target="m5A_iEzt90K2f7XGkb7F-2">
          <mxGeometry relative="1" as="geometry">
            <Array as="points">
              <mxPoint x="230" y="380" />
              <mxPoint x="230" y="180" />
            </Array>
          </mxGeometry>
        </mxCell>
        <mxCell id="m5A_iEzt90K2f7XGkb7F-15" value="NO" style="edgeLabel;html=1;align=center;verticalAlign=middle;resizable=0;points=[];" vertex="1" connectable="0" parent="m5A_iEzt90K2f7XGkb7F-14">
          <mxGeometry x="-0.8346" y="-3" relative="1" as="geometry">
            <mxPoint as="offset" />
          </mxGeometry>
        </mxCell>
        <mxCell id="m5A_iEzt90K2f7XGkb7F-8" value="New MAC addr" style="rhombus;whiteSpace=wrap;html=1;" vertex="1" parent="1">
          <mxGeometry x="351" y="340" width="126" height="80" as="geometry" />
        </mxCell>
        <mxCell id="m5A_iEzt90K2f7XGkb7F-13" style="edgeStyle=orthogonalEdgeStyle;rounded=0;orthogonalLoop=1;jettySize=auto;html=1;entryX=0;entryY=0.5;entryDx=0;entryDy=0;" edge="1" parent="1" source="m5A_iEzt90K2f7XGkb7F-10" target="m5A_iEzt90K2f7XGkb7F-2">
          <mxGeometry relative="1" as="geometry">
            <Array as="points">
              <mxPoint x="230" y="530" />
              <mxPoint x="230" y="180" />
            </Array>
          </mxGeometry>
        </mxCell>
        <mxCell id="m5A_iEzt90K2f7XGkb7F-10" value="Add to peer list" style="whiteSpace=wrap;html=1;" vertex="1" parent="1">
          <mxGeometry x="354" y="500" width="120" height="60" as="geometry" />
        </mxCell>
      </root>
    </mxGraphModel>
  </diagram>
</mxfile>
